# Blender v2.79 (sub 0) OBJ File: 'cactus.blend'
# www.blender.org
mtllib cactus.mtl
o Cube.003
v -2.399484 -0.852337 1.742245
v -2.399484 15.413599 1.742245
v -2.399484 -0.852337 -0.899599
v -2.399484 15.413599 -0.899599
v 0.242360 -0.852337 1.742245
v 0.242360 15.413599 1.742245
v 0.242360 -0.852337 -0.899599
v 0.242360 15.413599 -0.899599
v -2.399484 13.083520 1.742245
v -2.399484 13.083520 -0.899599
v 0.242360 13.083520 -0.899599
v 0.242360 13.083520 1.742245
v 8.478091 15.413599 -0.899599
v 8.478091 15.413599 1.742245
v 8.478091 13.083520 -0.899599
v 8.478091 13.083520 1.742245
v -2.399484 16.945549 1.742245
v -2.399484 16.945549 -0.899599
v 0.242360 16.945549 -0.899599
v 0.242360 16.945549 1.742245
v -11.833239 15.413599 1.742245
v -11.833239 15.413599 -0.899599
v -11.833239 16.945549 1.742245
v -11.833239 16.945549 -0.899599
v -10.092874 16.945549 -0.899599
v -10.092874 16.945549 1.742245
v -10.092874 15.413599 1.742245
v -10.092874 15.413599 -0.899599
v 6.303489 15.413599 1.742245
v 6.303489 15.413599 -0.899599
v 6.303489 13.083520 -0.899599
v 6.303489 13.083520 1.742245
v 8.478091 28.133659 -0.899599
v 8.478091 28.133659 1.742245
v 6.303489 28.133659 1.742245
v 6.303489 28.133659 -0.899599
v -11.833239 19.682671 1.742245
v -11.833239 19.682671 -0.899599
v -10.092874 19.682671 -0.899599
v -10.092874 19.682671 1.742245
vn -1.0000 0.0000 0.0000
vn 0.0000 0.0000 -1.0000
vn 0.0000 0.0000 1.0000
vn 0.0000 -1.0000 0.0000
vn 1.0000 0.0000 0.0000
vn 0.0000 1.0000 0.0000
usemtl Material.001
s off
f 9//1 2//1 4//1 10//1
f 10//2 4//2 8//2 11//2
f 30//1 29//1 35//1 36//1
f 12//3 6//3 2//3 9//3
f 3//4 7//4 5//4 1//4
f 6//5 8//5 19//5 20//5
f 5//3 12//3 9//3 1//3
f 7//5 11//5 12//5 5//5
f 3//2 10//2 11//2 7//2
f 1//1 9//1 10//1 3//1
f 15//5 13//5 14//5 16//5
f 32//4 31//4 15//4 16//4
f 29//3 32//3 16//3 14//3
f 31//2 30//2 13//2 15//2
f 19//6 18//6 17//6 20//6
f 24//1 23//1 37//1 38//1
f 2//3 6//3 20//3 17//3
f 8//2 4//2 18//2 19//2
f 22//1 21//1 23//1 24//1
f 28//4 27//4 21//4 22//4
f 25//2 28//2 22//2 24//2
f 27//3 26//3 23//3 21//3
f 2//3 17//3 26//3 27//3
f 18//2 4//2 28//2 25//2
f 4//4 2//4 27//4 28//4
f 17//6 18//6 25//6 26//6
f 11//2 8//2 30//2 31//2
f 6//3 12//3 32//3 29//3
f 12//4 11//4 31//4 32//4
f 8//6 6//6 29//6 30//6
f 36//6 35//6 34//6 33//6
f 29//3 14//3 34//3 35//3
f 14//5 13//5 33//5 34//5
f 13//2 30//2 36//2 33//2
f 40//6 39//6 38//6 37//6
f 25//2 24//2 38//2 39//2
f 26//5 25//5 39//5 40//5
f 23//3 26//3 40//3 37//3
